<svg width="22" height="22" viewBox="0 0 22 22" fill="none" xmlns="http://www.w3.org/2000/svg">
<path d="M0.75 2.75C0.75 1.64543 1.64543 0.75 2.75 0.75H6.75C7.85457 0.75 8.75 1.64543 8.75 2.75V6.75C8.75 7.85457 7.85457 8.75 6.75 8.75H2.75C1.64543 8.75 0.75 7.85457 0.75 6.75V2.75Z" stroke="#128a43" stroke-width="1.5"/>
<path d="M20.75 4.75C20.75 6.95914 18.9591 8.75 16.75 8.75C14.5409 8.75 12.75 6.95914 12.75 4.75C12.75 2.54086 14.5409 0.75 16.75 0.75C18.9591 0.75 20.75 2.54086 20.75 4.75Z" stroke="#128a43" stroke-width="1.5"/>
<path d="M8.75 16.75C8.75 18.9591 6.95914 20.75 4.75 20.75C2.54086 20.75 0.75 18.9591 0.75 16.75C0.75 14.5409 2.54086 12.75 4.75 12.75C6.95914 12.75 8.75 14.5409 8.75 16.75Z" stroke="#128a43" stroke-width="1.5"/>
<path d="M12.75 14.75C12.75 13.6454 13.6454 12.75 14.75 12.75H18.75C19.8546 12.75 20.75 13.6454 20.75 14.75V18.75C20.75 19.8546 19.8546 20.75 18.75 20.75H14.75C13.6454 20.75 12.75 19.8546 12.75 18.75V14.75Z" stroke="#128a43" stroke-width="1.5"/>
</svg>
